<?xml version="1.0" encoding="iso-8859-1"?>
<!-- Uploaded to: SVG Repo, www.svgrepo.com, Generator: SVG Repo Mixer Tools -->
<svg fill="#000000" height="800px" width="800px" version="1.1" id="Layer_1" xmlns="http://www.w3.org/2000/svg" xmlns:xlink="http://www.w3.org/1999/xlink" 
	 viewBox="0 0 512 512" xml:space="preserve">
<g>
	<g>
		<g>
			<path d="M202.638,253.693c-98.556,0-177.581,80.253-177.581,177.581v61.375c0,10.687,8.664,19.351,19.352,19.351h316.457
				c10.687,0,19.352-8.664,19.352-19.351v-61.375C380.218,333.965,301.235,253.693,202.638,253.693z M212.186,292.731
				c18.135,1.215,35.839,6.027,52.142,14.145l-61.69,61.69l-61.69-61.69C162.338,296.225,186.666,290.995,212.186,292.731z
				 M341.515,473.297H63.759v-42.024c0-40.313,17.272-76.663,44.796-102.057l80.399,80.399c7.556,7.556,19.809,7.557,27.367,0
				l80.398-80.399c27.524,25.394,44.796,61.743,44.796,102.056V473.297z"/>
			<path d="M52.061,168.944c-6.679,6.885-10.797,16.269-10.797,26.62c-0.001,46.338,67.851,52.446,75.899,6.661
				c46.871,48.25,124.03,48.299,170.95,0.001c8.052,45.797,75.9,39.663,75.9-6.663c0-10.35-4.118-19.733-10.798-26.62
				c14.409-14.853,14.391-38.402,0-53.238c31.662-32.638-10.771-83.874-48.731-58.396C283.535,22.971,245.719,0,202.638,0
				c-43.08,0-80.897,22.971-101.846,57.307c-38.014-25.513-80.319,25.836-48.732,58.398C37.65,130.562,37.671,154.11,52.061,168.944
				z M202.638,38.703c44.394,0,80.511,36.118,80.511,80.511s-36.118,80.511-80.511,80.511c-44.394,0-80.511-36.118-80.511-80.511
				C122.127,74.821,158.245,38.703,202.638,38.703z"/>
			<path d="M467.592,253.693c-7.85,0-14.595,4.683-17.629,11.402h-49.181c-3.034-6.719-9.779-11.402-17.629-11.402
				c-10.687,0-19.352,8.664-19.352,19.351v11.402v55.434v11.402c0,10.687,8.664,19.352,19.352,19.352
				c7.85,0,14.595-4.683,17.629-11.402h5.238v133.417c0,10.687,8.664,19.352,19.352,19.352s19.352-8.664,19.352-19.352V359.232
				h5.239c3.036,6.719,9.779,11.402,17.629,11.402c10.687,0,19.351-8.664,19.351-19.352V339.88v-55.434v-11.402
				C486.944,262.357,478.279,253.693,467.592,253.693z M448.241,320.529h-45.737v-16.731h45.737V320.529z"/>
		</g>
	</g>
</g>
</svg>