<svg xmlns="http://www.w3.org/2000/svg" xmlns:xlink="http://www.w3.org/1999/xlink" version="1.1"
    x="0px" y="0px" viewBox="0 0 64 80" style="enable-background:new 0 0 64 64;"
    xml:space="preserve"><path d="M20,24h24c0.552,0,1-0.447,1-1V11c0-0.553-0.448-1-1-1h-2V8c0-0.266-0.105-0.52-0.293-0.707l-2-2l-1.414,1.414L40,8.414V10  h-3c0-1.85-1.022-3.451-2.52-4.315C34.808,5.204,35,4.624,35,4c0-1.654-1.346-3-3-3s-3,1.346-3,3c0,0.624,0.192,1.204,0.52,1.685  C28.022,6.549,27,8.15,27,10h-7c-0.552,0-1,0.447-1,1v12C19,23.553,19.448,24,20,24z M31,4c0-0.552,0.449-1,1-1s1,0.448,1,1  s-0.449,1-1,1S31,4.552,31,4z M32,7c1.654,0,3,1.346,3,3h-6C29,8.346,30.346,7,32,7z M21,12h22v10H21V12z"/><path d="M25.48,30.685C25.808,30.204,26,29.624,26,29c0-1.654-1.346-3-3-3s-3,1.346-3,3c0,0.624,0.192,1.204,0.52,1.685  c-0.595,0.343-1.112,0.798-1.52,1.346c-0.408-0.548-0.925-1.003-1.52-1.346C17.808,30.204,18,29.624,18,29c0-1.654-1.346-3-3-3  s-3,1.346-3,3c0,0.624,0.192,1.204,0.52,1.685c-0.595,0.343-1.112,0.798-1.52,1.346c-0.408-0.548-0.925-1.003-1.52-1.346  C9.808,30.204,10,29.624,10,29c0-1.654-1.346-3-3-3s-3,1.346-3,3c0,0.624,0.192,1.204,0.52,1.685C3.022,31.549,2,33.15,2,35v1  c0,0.553,0.448,1,1,1h24c0.552,0,1-0.447,1-1v-1C28,33.15,26.978,31.549,25.48,30.685z M22,29c0-0.552,0.449-1,1-1s1,0.448,1,1  s-0.449,1-1,1S22,29.552,22,29z M14,29c0-0.552,0.449-1,1-1s1,0.448,1,1s-0.449,1-1,1S14,29.552,14,29z M6,29c0-0.552,0.449-1,1-1  s1,0.448,1,1s-0.449,1-1,1S6,29.552,6,29z M7,32c1.654,0,3,1.346,3,3H4C4,33.346,5.346,32,7,32z M15,32c1.654,0,3,1.346,3,3h-6  C12,33.346,13.346,32,15,32z M20,35c0-1.654,1.346-3,3-3s3,1.346,3,3H20z"/><path d="M59.48,30.685C59.808,30.204,60,29.624,60,29c0-1.654-1.346-3-3-3s-3,1.346-3,3c0,0.624,0.192,1.204,0.52,1.685  c-0.595,0.343-1.112,0.798-1.52,1.346c-0.408-0.548-0.925-1.003-1.52-1.346C51.808,30.204,52,29.624,52,29c0-1.654-1.346-3-3-3  s-3,1.346-3,3c0,0.624,0.192,1.204,0.52,1.685c-0.595,0.343-1.112,0.798-1.52,1.346c-0.408-0.548-0.925-1.003-1.52-1.346  C43.808,30.204,44,29.624,44,29c0-1.654-1.346-3-3-3s-3,1.346-3,3c0,0.624,0.192,1.204,0.52,1.685C37.022,31.549,36,33.15,36,35v1  c0,0.553,0.448,1,1,1h24c0.552,0,1-0.447,1-1v-1C62,33.15,60.978,31.549,59.48,30.685z M56,29c0-0.552,0.449-1,1-1s1,0.448,1,1  s-0.449,1-1,1S56,29.552,56,29z M48,29c0-0.552,0.449-1,1-1s1,0.448,1,1s-0.449,1-1,1S48,29.552,48,29z M40,29c0-0.552,0.449-1,1-1  s1,0.448,1,1s-0.449,1-1,1S40,29.552,40,29z M41,32c1.654,0,3,1.346,3,3h-6C38,33.346,39.346,32,41,32z M49,32c1.654,0,3,1.346,3,3  h-6C46,33.346,47.346,32,49,32z M54,35c0-1.654,1.346-3,3-3s3,1.346,3,3H54z"/><path d="M25.48,43.685C25.808,43.204,26,42.624,26,42c0-1.654-1.346-3-3-3s-3,1.346-3,3c0,0.624,0.192,1.204,0.52,1.685  c-0.595,0.343-1.112,0.798-1.52,1.346c-0.408-0.548-0.925-1.003-1.52-1.346C17.808,43.204,18,42.624,18,42c0-1.654-1.346-3-3-3  s-3,1.346-3,3c0,0.624,0.192,1.204,0.52,1.685c-0.595,0.343-1.112,0.798-1.52,1.346c-0.408-0.548-0.925-1.003-1.52-1.346  C9.808,43.204,10,42.624,10,42c0-1.654-1.346-3-3-3s-3,1.346-3,3c0,0.624,0.192,1.204,0.52,1.685C3.022,44.549,2,46.15,2,48v1  c0,0.553,0.448,1,1,1h24c0.552,0,1-0.447,1-1v-1C28,46.15,26.978,44.549,25.48,43.685z M22,42c0-0.552,0.449-1,1-1s1,0.448,1,1  s-0.449,1-1,1S22,42.552,22,42z M14,42c0-0.552,0.449-1,1-1s1,0.448,1,1s-0.449,1-1,1S14,42.552,14,42z M6,42c0-0.552,0.449-1,1-1  s1,0.448,1,1s-0.449,1-1,1S6,42.552,6,42z M7,45c1.654,0,3,1.346,3,3H4C4,46.346,5.346,45,7,45z M15,45c1.654,0,3,1.346,3,3h-6  C12,46.346,13.346,45,15,45z M20,48c0-1.654,1.346-3,3-3s3,1.346,3,3H20z"/><path d="M59.48,43.685C59.808,43.204,60,42.624,60,42c0-1.654-1.346-3-3-3s-3,1.346-3,3c0,0.624,0.192,1.204,0.52,1.685  c-0.595,0.343-1.112,0.798-1.52,1.346c-0.408-0.548-0.925-1.003-1.52-1.346C51.808,43.204,52,42.624,52,42c0-1.654-1.346-3-3-3  s-3,1.346-3,3c0,0.624,0.192,1.204,0.52,1.685c-0.595,0.343-1.112,0.798-1.52,1.346c-0.408-0.548-0.925-1.003-1.52-1.346  C43.808,43.204,44,42.624,44,42c0-1.654-1.346-3-3-3s-3,1.346-3,3c0,0.624,0.192,1.204,0.52,1.685C37.022,44.549,36,46.15,36,48v1  c0,0.553,0.448,1,1,1h24c0.552,0,1-0.447,1-1v-1C62,46.15,60.978,44.549,59.48,43.685z M56,42c0-0.552,0.449-1,1-1s1,0.448,1,1  s-0.449,1-1,1S56,42.552,56,42z M48,42c0-0.552,0.449-1,1-1s1,0.448,1,1s-0.449,1-1,1S48,42.552,48,42z M40,42c0-0.552,0.449-1,1-1  s1,0.448,1,1s-0.449,1-1,1S40,42.552,40,42z M41,45c1.654,0,3,1.346,3,3h-6C38,46.346,39.346,45,41,45z M49,45c1.654,0,3,1.346,3,3  h-6C46,46.346,47.346,45,49,45z M54,48c0-1.654,1.346-3,3-3s3,1.346,3,3H54z"/><path d="M25.48,56.685C25.808,56.204,26,55.624,26,55c0-1.654-1.346-3-3-3s-3,1.346-3,3c0,0.624,0.192,1.204,0.52,1.685  c-0.595,0.343-1.112,0.798-1.52,1.346c-0.408-0.548-0.925-1.003-1.52-1.346C17.808,56.204,18,55.624,18,55c0-1.654-1.346-3-3-3  s-3,1.346-3,3c0,0.624,0.192,1.204,0.52,1.685c-0.595,0.343-1.112,0.798-1.52,1.346c-0.408-0.548-0.925-1.003-1.52-1.346  C9.808,56.204,10,55.624,10,55c0-1.654-1.346-3-3-3s-3,1.346-3,3c0,0.624,0.192,1.204,0.52,1.685C3.022,57.549,2,59.15,2,61v1  c0,0.553,0.448,1,1,1h24c0.552,0,1-0.447,1-1v-1C28,59.15,26.978,57.549,25.48,56.685z M22,55c0-0.552,0.449-1,1-1s1,0.448,1,1  s-0.449,1-1,1S22,55.552,22,55z M14,55c0-0.552,0.449-1,1-1s1,0.448,1,1s-0.449,1-1,1S14,55.552,14,55z M6,55c0-0.552,0.449-1,1-1  s1,0.448,1,1s-0.449,1-1,1S6,55.552,6,55z M7,58c1.654,0,3,1.346,3,3H4C4,59.346,5.346,58,7,58z M15,58c1.654,0,3,1.346,3,3h-6  C12,59.346,13.346,58,15,58z M20,61c0-1.654,1.346-3,3-3s3,1.346,3,3H20z"/><path d="M59.48,56.685C59.808,56.204,60,55.624,60,55c0-1.654-1.346-3-3-3s-3,1.346-3,3c0,0.624,0.192,1.204,0.52,1.685  c-0.595,0.343-1.112,0.798-1.52,1.346c-0.408-0.548-0.925-1.003-1.52-1.346C51.808,56.204,52,55.624,52,55c0-1.654-1.346-3-3-3  s-3,1.346-3,3c0,0.624,0.192,1.204,0.52,1.685c-0.595,0.343-1.112,0.798-1.52,1.346c-0.408-0.548-0.925-1.003-1.52-1.346  C43.808,56.204,44,55.624,44,55c0-1.654-1.346-3-3-3s-3,1.346-3,3c0,0.624,0.192,1.204,0.52,1.685C37.022,57.549,36,59.15,36,61v1  c0,0.553,0.448,1,1,1h24c0.552,0,1-0.447,1-1v-1C62,59.15,60.978,57.549,59.48,56.685z M56,55c0-0.552,0.449-1,1-1s1,0.448,1,1  s-0.449,1-1,1S56,55.552,56,55z M48,55c0-0.552,0.449-1,1-1s1,0.448,1,1s-0.449,1-1,1S48,55.552,48,55z M40,55c0-0.552,0.449-1,1-1  s1,0.448,1,1s-0.449,1-1,1S40,55.552,40,55z M41,58c1.654,0,3,1.346,3,3h-6C38,59.346,39.346,58,41,58z M49,58c1.654,0,3,1.346,3,3  h-6C46,59.346,47.346,58,49,58z M54,61c0-1.654,1.346-3,3-3s3,1.346,3,3H54z"/><rect x="27" y="18" width="2" height="2"/><rect x="31" y="18" width="2" height="2"/><rect x="35" y="18" width="2" height="2"/></svg>