<svg xmlns="http://www.w3.org/2000/svg" xmlns:xlink="http://www.w3.org/1999/xlink" version="1.1" x="0px" y="0px" viewBox="0 0 576 720" enable-background="new 0 0 576 576" xml:space="preserve"><g><path d="M544.9,319.7h-19v-72.6c0-1.2-1.2-2.3-2.3-2.3h-27.6l-8.6-1.2v-1.7c0-1.2-0.6-2.3-1.7-2.3l-33.4-6.3l0,0l0,0h-8.6   c-0.6-0.6-0.6-1.2-1.2-1.2l-40.3-9.8c-0.6,0-0.6-0.6-1.2-0.6l0,0h-0.6l-18.4,2.3v-16.1c0-0.6-0.6-1.2-1.2-1.7l-10.9-8.1l0,0l0,0   l0,0l0,0l0,0l0,0l0,0l0,0l-19.6,1.7v-9.2c0-1.2-0.6-2.3-1.7-2.3l-42-4c-0.6,0-1.2,0-1.7,0.6s-0.6,1.2-0.6,1.7v4h-30v-4   c0-0.6,0-1.2-0.6-1.7c-0.6-0.6-1.2-0.6-1.7-0.6l-39.7,5.2c-1.2,0-1.7,1.2-1.7,2.3v9.2l-19.6-1.7l0,0c0,0,0,0-0.6,0l0,0l0,0l0,0l0,0   l0,0l0,0l-12.7,8.1c-0.6,0.6-1.2,1.2-1.2,1.7v16.1l-17.9-2.9H178l0,0c-0.6,0-1.2,0-1.2,0.6l-40.3,9.8c-0.6,0-1.2,0.6-1.2,1.2h-8.6   l0,0l0,0l-34.6,5.8c-1.2,0-1.7,1.2-1.7,2.3v1.7l-8.6,1.2H54.1c-1.2,0-2.3,1.2-2.3,2.3v73.2H31.1c-1.2,0-2.3,1.2-2.3,2.3   s1.2,2.3,2.3,2.3h513.8c1.2,0,2.3-1.2,2.3-2.3C547.2,320.8,546,319.7,544.9,319.7z M521.3,249.4v70.8h-23v-70.8H521.3z    M493.6,248.8v70.8h-6.3v-71.4L493.6,248.8z M482.7,319.7h-4.6v-16.1c0-1.2-1.2-2.3-2.3-2.3l-15-1.2c-0.6,0-1.2,0-1.7,0.6   c-0.6,0.6-0.6,1.2-0.6,1.7v17.9h-4.6v-81.8l28.8,5.2L482.7,319.7L482.7,319.7z M474,319.7h-10.9v-15l10.9,1.2V319.7z M442.9,238.5   h6.3v81.8h-6.3V238.5z M438.9,319.7h-8.6v-19c0-1.2-1.2-2.3-2.3-2.3h-17.9c-1.2,0-2.3,1.2-2.3,2.3v19H402v-92.2l36.3,8.6v83.5   H438.9z M425.7,319.7h-13.2V303h13.2V319.7z M165.3,319.7h-13.2V303h13.2V319.7z M167.6,298.4h-17.9c-1.2,0-2.3,1.2-2.3,2.3v19   h-8.6v-82.9l36.3-8.6v92.2h-5.8v-19C169.9,299.5,168.8,298.4,167.6,298.4z M128.4,238.5h6.3v81.8h-6.3V238.5z M179.7,227.5l38,5.2   v87.6h-38V227.5L179.7,227.5z M264.4,213.7L264.4,213.7L264.4,213.7h11.5v106.6h-53V213.7H264.4z M242.5,209.1   c1.7-3.5,5.2-5.2,9.2-5.2c4,0,7.5,2.3,9.2,5.2H242.5z M274.2,205.6h30v3.5h-4.6c-1.2,0-2.3,1.2-2.3,2.3v8.1h-16.7v-8.1   c0-1.2-1.2-2.3-2.3-2.3h-4V205.6L274.2,205.6z M297.2,232.7h-16.7v-8.6h16.7V232.7z M280.5,237.3h16.7v61.1h-16.7V237.3z    M280.5,303h16.7v16.7h-16.7V303z M301.8,213.7h11.5l0,0l0,0h41.5v106.6h-53V213.7z M316.8,209.1c1.7-3.5,5.2-5.2,9.2-5.2   c4,0,7.5,2.3,9.2,5.2H316.8z M359.4,232.7l38-5.2v92.7h-38V232.7z M376.1,225.8l-6.3,0.6v-20.7l6.3,4.6V225.8z M365.8,203.3v23.6   l-6.3,0.6v-16.7c0-1.2-1.2-2.3-2.3-2.3h-9.2v-3.5L365.8,203.3z M343.3,193.5v15.6h-3.5c-2.3-5.8-8.1-9.8-14.4-9.8   c-6.3,0-12.1,4-14.4,9.8h-3.5v-5.2v-0.6v-0.6v-9.2V193v-0.6v-2.9L343.3,193.5z M303.6,195.3v5.8h-30v-5.8H303.6z M269.6,188.9v20.2   h-3.5c-2.3-5.8-8.1-9.8-14.4-9.8c-6.3,0-12.1,4-14.4,9.8h-3.5v-15.6L269.6,188.9z M229.8,205.1v3.5h-9.2c-1.2,0-2.3,1.2-2.3,2.3   v16.7l-6.3-0.6v-23.6L229.8,205.1z M201.6,210.2l6.3-4.6v20.7l-6.3-0.6V210.2z M95,243.6l28.8-5.2v81.2h-4.6v-17.9   c0-0.6,0-1.2-0.6-1.7c-0.6-0.6-1.2-0.6-1.7-0.6l-15.6,1.2c-1.2,0-2.3,1.2-2.3,2.3v16.1h-4.6v-75.5H95z M114.6,319.7h-10.9v-14.4   l10.9-1.2V319.7z M81.8,279.9l8.6,16.7v8.1h-23L81.8,279.9z M90.4,309.3v10.9h-6.3v-10.9H90.4z M90.4,286.3l-6.3-12.1v-25.3   l6.3-0.6V286.3z M56.4,249.4h23v25.3l-18.4,31.1c-0.6,0.6-0.6,1.7,0,2.3c0.6,0.6,1.2,1.2,1.7,1.2h16.7v10.9h-23   C56.4,320.3,56.4,249.4,56.4,249.4z"/><path d="M524.7,331.2H51.3c-1.2,0-2.3,1.2-2.3,2.3s1.2,2.3,2.3,2.3h473.5c1.2,0,2.3-1.2,2.3-2.3S525.9,331.2,524.7,331.2z"/><path d="M504,342.1H72c-1.2,0-2.3,1.2-2.3,2.3s1.2,2.3,2.3,2.3h432c1.2,0,2.3-1.2,2.3-2.3C506.3,343.3,505.2,342.1,504,342.1z"/><path d="M483.3,353.7H92.7c-1.2,0-2.3,1.2-2.3,2.3c0,1.2,1.2,2.3,2.3,2.3h391.1c1.2,0,2.3-1.2,2.3-2.3   C485.6,354.8,485,353.7,483.3,353.7z"/><path d="M463.1,364.6H112.9c-1.2,0-2.3,1.2-2.3,2.3s1.2,2.3,2.3,2.3h349.6c1.2,0,2.3-1.2,2.3-2.3   C465.4,365.8,464.3,364.6,463.1,364.6z"/><path d="M442.4,376.1H133.6c-1.2,0-2.3,1.2-2.3,2.3c0,1.2,1.2,2.3,2.3,2.3h308.7c1.2,0,2.3-1.2,2.3-2.3   C444.7,377.3,443.5,376.1,442.4,376.1z"/><path d="M421.6,387.1H154.4c-1.2,0-2.3,1.2-2.3,2.3c0,1.2,1.2,2.3,2.3,2.3h267.3c1.2,0,2.3-1.2,2.3-2.3   C423.9,388.2,422.8,387.1,421.6,387.1z"/><path d="M199.3,278.8c-8.6,0-15,6.9-15,15c0,8.6,6.9,15,15,15c8.6,0,15-6.9,15-15C214.3,285.1,207.4,278.8,199.3,278.8z    M199.3,304.7c-5.8,0-10.9-4.6-10.9-10.9c0-6.3,4.6-10.9,10.9-10.9c5.8,0,10.9,4.6,10.9,10.9C210.2,300.1,205.1,304.7,199.3,304.7z   "/><path d="M160.7,239c0-1.2-1.2-1.7-2.3-1.7c-1.2,0-2.3,0.6-2.3,1.7l-9.2,46.7c0,0.6,0,1.2,0.6,1.7c0.6,0.6,1.2,0.6,1.7,0.6H167   c0.6,0,1.2-0.6,1.7-0.6s0.6-1.2,0.6-1.7L160.7,239z M152.6,284l6.3-32.3l6.3,32.3H152.6z"/><path d="M101.4,293.2L101.4,293.2l15.6-1.2c0.6,0,1.2-0.6,1.7-1.2c0.6-0.6,0.6-1.2,0.6-1.7l-9.8-39.2c0-1.2-1.2-1.7-2.3-1.7   c-1.2,0-1.7,1.2-2.3,1.7l-5.8,40.3c0,0.6,0,1.2,0.6,1.7C100.2,293.2,100.8,293.2,101.4,293.2z M107.7,262.7l5.8,24.8l-9.8,0.6   L107.7,262.7z"/><path d="M378.4,278.8c-8.6,0-15,6.9-15,15c0,8.6,6.9,15,15,15c8.6,0,15-6.9,15-15C393.4,285.1,387.1,278.8,378.4,278.8z    M378.4,304.7c-5.8,0-10.9-4.6-10.9-10.9c0-6.3,4.6-10.9,10.9-10.9c6.3,0,10.9,4.6,10.9,10.9C389.4,300.1,384.2,304.7,378.4,304.7z   "/><path d="M410.1,288.6H428l0,0c1.2,0,2.3-1.2,2.3-2.3c0-0.6,0-0.6,0-1.2l-8.6-46.7c0-1.2-1.2-1.7-2.3-1.7c-1.2,0-2.3,0.6-2.3,1.7   l-9.2,46.7c0,0.6,0,1.2,0.6,1.7C409,288,409.5,288.6,410.1,288.6z M418.8,251.7l6.3,32.3H413L418.8,251.7z"/><path d="M460.8,292l15,1.2l0,0l0,0c1.2,0,2.3-1.2,2.3-2.3v-0.6l-5.8-40.3c0-1.2-1.2-1.7-2.3-1.7s-2.3,0.6-2.3,1.7l-9.2,39.2   c0,0.6,0,1.2,0.6,1.7C459.6,291.5,460.2,292,460.8,292z M470,262.7l3.5,25.9l-9.8-0.6L470,262.7z"/></g><text transform="matrix(1 0 0 1 52 660)" font-family="'Arial-BoldMT'" font-size="27">Created by Mahmud Shuvra</text><text x="0" y="591" fill="#000000" font-size="5px" font-weight="bold" font-family="'Helvetica Neue', Helvetica, Arial-Unicode, Arial, Sans-serif">Created by Mahmud Shuvra</text><text x="0" y="596" fill="#000000" font-size="5px" font-weight="bold" font-family="'Helvetica Neue', Helvetica, Arial-Unicode, Arial, Sans-serif">from the Noun Project</text></svg>