<?xml version="1.0" encoding="iso-8859-1"?>
<!-- Uploaded to: SVG Repo, www.svgrepo.com, Generator: SVG Repo Mixer Tools -->
<svg height="800px" width="800px" version="1.1" id="Layer_1" xmlns="http://www.w3.org/2000/svg" xmlns:xlink="http://www.w3.org/1999/xlink" 
	 viewBox="0 0 512 512" xml:space="preserve">
<path style="fill:#9E9E9E;" d="M499.678,230.506c0,86.277-34.747,156.228-77.627,156.228c-8.539,0-16.77-2.772-24.446-7.911
	c-30.891-20.614-53.169-79.229-53.169-148.317c0-71.935,24.151-132.509,57.013-150.671c5.224-2.883,10.671-4.695,16.277-5.323h0.012
	c1.429-0.16,2.871-0.234,4.313-0.234C464.931,74.278,499.678,144.216,499.678,230.506z"/>
<ellipse style="fill:#FFC107;" cx="61.609" cy="230.503" rx="49.287" ry="82.255"/>
<path style="fill:#ECF0F1;" d="M397.604,378.823L86.8,278.253c-13.098,0-23.732-21.378-23.732-47.747
	c0-26.381,10.634-47.759,23.732-47.759L401.449,79.835c-32.862,18.162-57.013,78.736-57.013,150.671
	C344.436,299.594,366.714,358.209,397.604,378.823z"/>
<g>
	<path style="fill:#231F20;" d="M487.98,114.55c-16.851-33.915-40.265-52.594-65.928-52.594c-1.873,0-3.722,0.097-5.499,0.291
		c-0.065,0.006-0.131,0.014-0.197,0.021c-6.722,0.753-13.332,2.835-19.683,6.165l-291.121,95.217
		c-11.096-17.199-26.566-27.724-43.943-27.724C27.061,135.925,0,177.468,0,230.502s27.061,94.577,61.609,94.577
		c17.4,0,32.888-10.554,43.986-27.793l25.782,8.343v63.033c0,44.874,36.507,81.382,81.382,81.382h7.168
		c44.873,0,81.382-36.508,81.382-81.382v-8.046l90.972,29.437c9.458,5.972,19.465,9.004,29.771,9.004
		c25.663,0,49.076-18.68,65.928-52.599C503.468,315.281,512,274.101,512,230.507C512,186.906,503.47,145.727,487.98,114.55z
		 M61.609,300.435c-17.483,0-36.965-28.721-36.965-69.934s19.482-69.934,36.965-69.934c6.384,0,13.034,3.831,18.905,10.7
		c-17.345,4.68-29.767,28.578-29.767,59.237c0,30.653,12.424,54.547,29.771,59.225C74.645,296.603,67.994,300.435,61.609,300.435z
		 M276.665,368.661c0,31.286-25.453,56.738-56.738,56.738h-7.168c-31.285,0-56.738-25.452-56.738-56.738v-55.059l120.644,39.038
		L276.665,368.661L276.665,368.661z M256.782,320.304c-9.613-25.611-14.895-57.301-14.895-89.799
		c0-6.804-5.516-12.322-12.322-12.322s-12.322,5.518-12.322,12.322c0,28.625,3.618,55.985,10.54,80.416
		c0,0-139.653-44.987-140.942-44.987c-2.668-0.508-11.453-12.545-11.453-35.429c0-22.893,8.785-34.934,11.41-35.437
		c1.301,0,273.791-88.907,273.791-88.907l0.051-0.052c-17.831,30.951-28.526,75.412-28.526,124.396
		c0,34.915,5.445,68.305,15.745,96.557c3.566,9.781,7.64,18.687,12.134,26.674l-0.053-0.053L256.782,320.304z M465.91,335.491
		c-12.29,24.735-28.275,38.921-43.858,38.921c-5.896,0-11.814-1.962-17.607-5.838c-28.076-18.737-47.687-75.512-47.687-138.068
		c0-73.458,25.48-125.976,50.644-139.882c3.809-2.102,7.695-3.397,11.554-3.849c0.054-0.006,0.108-0.011,0.163-0.018
		c0.924-0.104,1.91-0.156,2.931-0.156c15.585,0,31.571,14.185,43.859,38.916c13.83,27.835,21.446,65.122,21.446,104.99
		C487.356,270.37,479.74,307.655,465.91,335.491z"/>
	<path style="fill:#231F20;" d="M438.722,284.905c-6.495-2.033-13.406,1.591-15.436,8.087c-0.563,1.805-1.155,3.579-1.757,5.277
		c-2.276,6.412,1.078,13.457,7.492,15.732c1.363,0.484,2.753,0.713,4.12,0.713c5.069,0,9.82-3.154,11.612-8.205
		c0.707-1.991,1.399-4.067,2.055-6.171C448.84,293.845,445.218,286.933,438.722,284.905z"/>
	<path style="fill:#231F20;" d="M415.201,125.242c-5.654,3.785-7.171,11.438-3.386,17.094c3.355,5.013,20.093,32.824,20.093,88.171
		c0,6.804,5.516,12.322,12.322,12.322c6.805,0,12.322-5.518,12.322-12.322c0-60.904-18.566-93.376-24.258-101.879
		C428.51,122.975,420.857,121.457,415.201,125.242z"/>
	<path style="fill:#231F20;" d="M236.385,165.083c-6.698-1.196-13.104,3.246-14.312,9.941c-0.487,2.696-0.939,5.436-1.348,8.143
		c-1.015,6.729,3.618,13.007,10.347,14.022c0.623,0.094,1.241,0.138,1.853,0.138c5.992,0,11.247-4.38,12.168-10.486
		c0.373-2.477,0.789-4.983,1.232-7.449C247.532,172.697,243.082,166.289,236.385,165.083z"/>
</g>
</svg>