<?xml version='1.0' encoding='iso-8859-1'?>
<!DOCTYPE svg PUBLIC '-//W3C//DTD SVG 1.1//EN' 'http://www.w3.org/Graphics/SVG/1.1/DTD/svg11.dtd'>
<!-- Uploaded to: SVG Repo, www.svgrepo.com, Generator: SVG Repo Mixer Tools -->
<svg fill="#000000" height="800px" width="800px" version="1.1" xmlns="http://www.w3.org/2000/svg" viewBox="0 0 297 297" xmlns:xlink="http://www.w3.org/1999/xlink" enable-background="new 0 0 297 297">
  <path d="m245.636,66.044c0-16.072-13.557-29.147-30.219-29.147-3.986,0-7.789,0.755-11.277,2.113-3.809-11.895-15.313-20.562-28.879-20.562-3.986,0-7.789,0.756-11.277,2.113-3.809-11.894-15.315-20.561-28.879-20.561-13.565,0-25.068,8.667-28.877,20.562-3.488-1.357-7.293-2.113-11.277-2.113-16.664,0-30.219,13.075-30.219,29.147v60.352c-8.246,8.702-13.367,20.27-13.367,32.767v35.457c0,20.961 13.031,38.854 31.213,45.601v65.088c0,5.6 4.541,10.14 10.141,10.14h124.93c5.601,0 10.141-4.54 10.141-10.14v-72.778c10.865-8.889 17.848-22.574 17.848-37.91v-110.129zm-30.221-8.867c5.387,0 9.938,4.061 9.938,8.867v54.226c0,4.807-4.551,8.866-9.938,8.866-5.387,0-9.938-4.059-9.938-8.866v-54.226c0.001-4.807 4.551-8.867 9.938-8.867zm-40.156-18.448c5.387,0 9.938,4.06 9.938,8.866v54.226c0,4.807-4.551,8.867-9.938,8.867-1.396,0-2.619,0.033-3.711,0.092-1.525-3.421-3.643-6.52-6.227-9.161v-54.023c2.84217e-14-4.807 4.551-8.867 9.938-8.867zm-30.219,53.545l-19.875-.034v-63.092c0-4.807 4.551-8.867 9.938-8.867 5.387,0 9.938,4.061 9.938,8.867v63.126zm-50.093-53.545c5.387,0 9.938,4.06 9.938,8.866v44.645h-4.135c-5.475,0-10.771,0.942-15.74,2.645v-47.289c0-4.807 4.549-8.867 9.937-8.867zm112.559,237.991h-104.65v-52.073h0.059c5.6,0 10.139-4.541 10.139-10.141 0-5.601-4.539-10.141-10.139-10.141h-4.328c-14.855,0-26.943-12.647-26.943-28.193v-35.457c0-15.019 13.602-28.193 29.107-28.193h42.338c5.996,0 10.873,4.908 10.873,10.942 0,6.034-4.877,10.942-10.873,10.942h-40.174c-5.602,0-10.141,4.541-10.141,10.141 0,5.6 4.539,10.141 10.141,10.141h24.104c14.857,0 26.943,12.648 26.943,28.192v11.74c0,5.6 4.541,10.141 10.141,10.141 5.602,0 10.141-4.541 10.141-10.141v-11.74c0-13.126-5.117-25.043-13.4-33.78 6.166-4.303 10.713-10.777 12.527-18.313 0.611,0.115 1.242,0.182 1.889,0.182 3.986,0 7.791-0.755 11.277-2.114 3.809,11.895 15.313,20.563 28.879,20.563 3.48,0 6.824-0.577 9.938-1.627v28.382c0,15.546-12.088,28.193-26.945,28.193h-4.326c-5.6,0-10.141,4.54-10.141,10.141 0,5.6 4.541,10.141 10.141,10.141h4.326c3.113,0 6.152-0.319 9.1-0.912v52.984z"/>
</svg>