<?xml version="1.0" encoding="UTF-8" standalone="no"?>
<!-- Created with Inkscape (http://www.inkscape.org/) -->

<svg
   version="1.1"
   id="svg2"
   width="3100.4668"
   height="2904.5732"
   viewBox="0 0 3100.4668 2904.5732"
   sodipodi:docname="vecteezy_bangladesh-parliament-vector-icon-bangladesh-parliament_19619997.eps"
   xmlns:inkscape="http://www.inkscape.org/namespaces/inkscape"
   xmlns:sodipodi="http://sodipodi.sourceforge.net/DTD/sodipodi-0.dtd"
   xmlns="http://www.w3.org/2000/svg"
   xmlns:svg="http://www.w3.org/2000/svg">
  <defs
     id="defs6" />
  <sodipodi:namedview
     id="namedview4"
     pagecolor="#000000"
     bordercolor="#ffffff"
     borderopacity="0.25"
     inkscape:showpageshadow="2"
     inkscape:pageopacity="0.0"
     inkscape:pagecheckerboard="0"
     inkscape:deskcolor="#d1d1d1" />
  <g
     id="g8"
     inkscape:groupmode="layer"
     inkscape:label="ink_ext_XXXXXX"
     transform="matrix(1.3333333,0,0,-1.3333333,0,2904.5733)">
    <g
       id="g10"
       transform="scale(0.1)">
      <path
         d="M 0,21784.3 V 0 H 23253.5 V 21784.3 H 0"
         style="fill:#ffffff;fill-opacity:1;fill-rule:nonzero;stroke:none"
         id="path12" />
      <path
         d="M 21475.3,10790 C 21475.3,5307.3 17030.7,862.602 11548,862.602 6065.26,862.602 1620.63,5307.3 1620.63,10790 c 0,5482.7 4444.63,9927.4 9927.37,9927.4 5482.7,0 9927.3,-4444.7 9927.3,-9927.4"
         style="fill:#ffffff;fill-opacity:1;fill-rule:nonzero;stroke:none"
         id="path14" />
      <path
         d="m 8404.32,9942.5 c -220.48,0 -399.21,225.8 -399.21,504.3 0,278.4 178.73,504.2 399.21,504.2 220.48,0 399.21,-225.8 399.21,-504.2 0,-278.5 -178.73,-504.3 -399.21,-504.3 z m 814.01,-487.8 c 0,0 30.33,3073.5 50.55,3053.3 l -1344.65,192.1 -20.22,-2891.5 1051.45,-343.8 262.87,-10.1"
         style="fill:#000000;fill-opacity:1;fill-rule:nonzero;stroke:none"
         id="path16" />
      <path
         d="m 7459.16,12224.9 212.31,-1587.3 -505.5,-30.3 z m -283.08,-2032.2 495.39,20.3 19.28,-375.9 112.15,1.8 v 2810.6 l -1253.65,-252.7 -20.22,-2578.1 647.05,10.2 v 363.8"
         style="fill:#000000;fill-opacity:1;fill-rule:nonzero;stroke:none"
         id="path18" />
      <path
         d="m 5336.03,10455.6 c 20.22,101.1 202.21,1324.4 202.21,1324.4 l 171.87,-1324.4 z M 6377.38,9849 v 2537.6 l -1091.9,-262.8 -40.44,-2153.5 556.06,-10.1 576.28,-111.2"
         style="fill:#000000;fill-opacity:1;fill-rule:nonzero;stroke:none"
         id="path20" />
      <path
         d="m 14683,10897.1 c 220.5,0 399.2,-225.8 399.2,-504.3 0,-278.4 -178.7,-504.2 -399.2,-504.2 -220.5,0 -399.2,225.8 -399.2,504.2 0,278.5 178.7,504.3 399.2,504.3 z m -814,-1496.3 262.9,10.1 1051.4,343.7 -20.2,2891.5 -1344.7,-192.1 c 20.3,20.3 50.6,-3053.2 50.6,-3053.2"
         style="fill:#000000;fill-opacity:1;fill-rule:nonzero;stroke:none"
         id="path22" />
      <path
         d="m 15628.2,12171 293.2,-1617.7 -505.6,30.4 z m -212.4,-2012 495.4,-20.2 V 9775 l 647.1,-10.3 -20.2,2578.1 -1253.7,252.8 V 9785 l 112.2,-1.8 19.2,375.8"
         style="fill:#000000;fill-opacity:1;fill-rule:nonzero;stroke:none"
         id="path24" />
      <path
         d="m 17549.1,11726.1 c 0,0 182,-1223.3 202.2,-1324.4 h -374.1 z m 293.2,-1809.7 -40.5,2153.5 -1091.9,262.8 V 9795.1 l 576.3,111.2 556.1,10.1"
         style="fill:#000000;fill-opacity:1;fill-rule:nonzero;stroke:none"
         id="path26" />
      <path
         d="m 5113.61,11951.9 h -818.39 c 18.95,-16.2 -20.75,-1981.6 -20.75,-1981.6 l 829.03,-10.1 10.11,1991.7"
         style="fill:#000000;fill-opacity:1;fill-rule:nonzero;stroke:none"
         id="path28" />
      <path
         d="m 6448.15,9485 2173.68,-40.4 -849.25,273 h -1395.2 l -606.61,161.7 h -1496.3 v -798.7 l 121.32,-20.2 2052.36,424.6"
         style="fill:#000000;fill-opacity:1;fill-rule:nonzero;stroke:none"
         id="path30" />
      <path
         d="m 8904.91,12740.5 v 394.3 l -242.64,-171.9 10.11,-303.3 232.53,80.9"
         style="fill:#000000;fill-opacity:1;fill-rule:nonzero;stroke:none"
         id="path32" />
      <path
         d="m 9258.77,13134.8 -265.62,44.1 v -451.2 l 278.71,-59.7 -13.09,466.8"
         style="fill:#000000;fill-opacity:1;fill-rule:nonzero;stroke:none"
         id="path34" />
      <path
         d="m 9757.42,13195.4 h -3.26 c 1.43,-1.4 2.49,-1.3 3.26,0"
         style="fill:#000000;fill-opacity:1;fill-rule:nonzero;stroke:none"
         id="path36" />
      <path
         d="m 9757.42,13195.4 h 3636.38 v 141.6 h -505.5 v 60.7 h -2760.1 l -4.6,-60.7 h -379.54 c 0,0 20.75,-128.7 13.36,-141.6"
         style="fill:#000000;fill-opacity:1;fill-rule:nonzero;stroke:none"
         id="path38" />
      <path
         d="m 11253.8,12356.3 h 616.8 l -3.4,715.6 c 0,0 -599.9,-2.3 -615.6,-4.5 l 2.2,-711.1"
         style="fill:#000000;fill-opacity:1;fill-rule:nonzero;stroke:none"
         id="path40" />
      <path
         d="m 11000,9153.6 h -224.7 v -161.7 h 1428.9 v 157.2 h -166.3 v 258.4 h 1703 v 3653.1 H 11974.7 V 9603 h -476 v 1238.4 c 99.6,-140.6 408.9,-70.1 408.9,-70.1 v 328 c -168.2,-112.2 -351.9,43.1 -408.9,98.4 v 49.9 c 0,0 -35.9,4.5 -40.4,0 -12.2,-12.2 -1.7,-1447.2 -0.2,-1644.6 h -305.4 v 3477.9 H 9386.51 V 9427.7 h 1613.29 c -0.6,-126.1 0.2,-274.1 0.2,-274.1"
         style="fill:#000000;fill-opacity:1;fill-rule:nonzero;stroke:none"
         id="path42" />
      <path
         d="m 18162.4,10924 c 80.9,-94.3 633.6,-1064.9 633.6,-1064.9 v 1995.1 l -862.7,53.9 c 13.5,-67.4 0,-1118.9 0,-1118.9 0,0 148.3,229.2 229.1,134.8"
         style="fill:#000000;fill-opacity:1;fill-rule:nonzero;stroke:none"
         id="path44" />
      <path
         d="M 16612.2,9360.3 18459,8955.9 h 323.5 v 808.8 l -1294.1,40.5 -781.8,-175.3 h -1428.9 l -822.3,-229.1 2156.8,-40.5"
         style="fill:#000000;fill-opacity:1;fill-rule:nonzero;stroke:none"
         id="path46" />
      <path
         d="m 20939.4,8376.3 -27,148.3 -1536.7,310 -1024.5,13.5 -1698.5,404.4 -2345.6,40.4 -1968.1,13.5 -40.4,-377.4 h -1617.7 l -40.4,404.4 -4165.39,26.9 -2022.03,-404.4 -700.97,27 c 0,0 -1497.97,-337 -1442.38,-337 53.92,0 -26.96,-229.2 -26.96,-229.2 l 18656.63,-40.4"
         style="fill:#000000;fill-opacity:1;fill-rule:nonzero;stroke:none"
         id="path48" />
      <path
         d="m 14214.7,12731.4 v 394.3 l 242.7,-171.9 -10.1,-303.3 -232.6,80.9"
         style="fill:#000000;fill-opacity:1;fill-rule:nonzero;stroke:none"
         id="path50" />
      <path
         d="m 13860.9,13125.7 265.6,44.1 v -451.2 l -278.7,-59.7 13.1,466.8"
         style="fill:#000000;fill-opacity:1;fill-rule:nonzero;stroke:none"
         id="path52" />
    </g>
  </g>
</svg>
